<svg class="icon" viewBox="0 0 1024 1024" xmlns="http://www.w3.org/2000/svg" width="200" height="200"><defs><style/></defs><path d="M621.714 54.857c-191.885 0-347.428 155.543-347.428 347.429 0 80.343 27.314 154.285 73.028 213.143L300.343 662.4l-71.2-71.2a9.314 9.314 0 00-13.029 0l-45.485 45.486a9.314 9.314 0 000 13.028l71.2 71.2-51.315 51.315-71.2-71.2a9.314 9.314 0 00-13.028 0L60.8 746.514a9.314 9.314 0 000 13.029l71.2 71.2-74.629 74.628a9.177 9.177 0 000 12.915l48.343 48.343c3.543 3.542 9.372 3.542 12.915 0L408.457 676.8a347.497 347.497 0 00213.257 72.914c191.886 0 347.429-155.543 347.429-347.428S813.6 54.857 621.714 54.857zm184.229 531.657c-49.143 49.257-114.629 76.343-184.229 76.343-69.6 0-135.085-27.086-184.228-76.343-49.257-49.143-76.343-114.628-76.343-184.228 0-69.6 27.086-135.086 76.343-184.229 49.143-49.257 114.628-76.343 184.228-76.343 69.6 0 135.086 27.086 184.229 76.343 49.257 49.143 76.343 114.629 76.343 184.229 0 69.6-27.086 135.085-76.343 184.228z"/></svg>