<svg width="521" height="521" xmlns="http://www.w3.org/2000/svg"><defs><radialGradient cx="1.963%" cy="52.914%" fx="1.963%" fy="52.914%" r="73.396%" gradientTransform="matrix(1 0 0 .99837 0 0)" id="a"><stop stop-color="#70B3FC" offset="0%"/><stop stop-color="#3570E5" offset="100%"/></radialGradient></defs><path d="M106.134 56.08C87.07 68.28 70.431 83.26 56.22 101.019c-14.211 17.759-26.09 38.416-35.636 61.97 15.907 20.12 33.704 37.42 53.39 51.905 19.687 14.485 41.377 26.236 65.069 35.253H1c.852 28.927 3.186 51.959 7 69.095 3.814 17.136 10.28 33.632 19.395 49.488 14.067-1.962 28.941-5.893 44.622-11.794 15.68-5.902 31.295-10.91 46.842-15.027l-63.64 72.852c11.844 21.309 28.816 39.322 50.915 54.039 22.1 14.717 46.2 26.81 72.303 36.278 8.53-21.02 14.656-40.97 18.38-59.853 3.723-18.884 5.335-38.176 4.834-57.877L261.551 521c26.844 0 55.439-5.305 85.785-15.925 30.346-10.62 60.383-29.33 90.11-56.13-25.318-28.856-50.576-53.68-75.774-74.471-25.199-20.792-52.341-39.203-81.427-55.235H513.86c6.548-14.03 8.685-38.816 6.411-74.36-2.274-35.544-10.745-69.76-25.411-102.648-43.636 9.27-80.031 19.898-109.187 31.886-29.156 11.989-56.753 27.672-82.79 47.052L413.918 51.08c-27.759-20.884-58.995-35.49-93.71-43.82-34.715-8.327-67.502-9.491-98.359-3.491-10.064 36.38-16.651 68.49-19.762 96.334-3.11 27.844-3.256 55.997-.436 84.46L106.134 56.08zm136.734 274.128l102 90.49c2.686 2.384 2.06 6.737-1.19 8.265l-56.368 26.51a5 5 0 01-6.786-2.707l-45.632-117.001c-1.908-4.892 4.049-9.042 7.976-5.557zm-51.075-1.42l-23.014 92.656a5 5 0 01-6.828 3.388l-47.986-20.638c-3.234-1.39-4.056-5.597-1.586-8.103l71-72.018c3.57-3.622 9.64-.22 8.414 4.715zM64.495 276.025l106.734 10.613c5.367.534 6.202 8.015 1.085 9.72L72.107 329.743a5 5 0 01-6.526-4.01l-6.527-44c-.478-3.22 2.201-6.03 5.44-5.709zm369.411-59.12l9 55.8a5 5 0 01-4.724 5.791l-176.895 7.5c-5.677.241-7.293-7.67-1.976-9.674l167.895-63.299c2.959-1.115 6.197.761 6.7 3.883zM127.551 148.03l63.49 99c2.96 4.615-2.594 9.941-7.082 6.791l-90-63.172a5 5 0 01-1.146-7.066l26.51-35.828c2.082-2.815 6.338-2.673 8.228.275zM244.907 81.68l71 20.014c3.166.893 4.622 4.547 2.938 7.373l-80 134.22c-2.68 4.496-9.591 2.374-9.287-2.851l9-154.234c.187-3.19 3.274-5.388 6.349-4.522z" fill="url(#a)" fill-rule="nonzero"/></svg>