<svg class="icon" viewBox="0 0 1024 1024" xmlns="http://www.w3.org/2000/svg" width="200" height="200"><defs><style/></defs><path d="M510.003 864.154c0 24.115 16.282 41.676 38.759 41.676h436.48c22.476 0 38.758-17.561 38.758-41.676 0-24.167-16.282-41.677-38.758-41.677h-436.48c-22.477 0-38.759 17.51-38.759 41.677zm0-704.308c0 24.167 16.282 41.677 38.759 41.677h436.48c22.476 0 38.758-17.51 38.758-41.677 0-24.115-16.282-41.676-38.758-41.676h-436.48c-22.477 0-38.759 17.561-38.759 41.676zM512.512 512c0-24.166-16.23-41.677-38.605-41.677h-435.2C16.23 470.323 0 487.833 0 512c0 24.166 16.23 41.677 38.656 41.677h435.2c22.374 0 38.605-17.51 38.605-41.677zm-51.61 352.154c0-87.706-69.836-159.079-155.699-159.079-70.349 0-131.174 48.538-149.811 117.402H40.806C17.152 822.477 0 839.987 0 864.154c0 24.115 17.152 41.676 40.806 41.676h114.535c18.637 68.813 79.462 117.35 149.811 117.35 85.862 0 155.648-71.372 155.648-159.026zm-155.75 75.673c-40.909 0-74.138-33.945-74.138-75.673 0-41.78 33.28-75.725 74.138-75.725 40.858 0 74.086 33.945 74.086 75.725 0 41.728-33.28 75.673-74.086 75.673zM460.8 159.847C460.851 72.191 391.014.818 305.152.818c-70.349 0-131.174 48.538-149.811 117.35H40.806C17.152 118.17 0 135.732 0 159.847c0 24.167 17.152 41.677 40.806 41.677h114.535c18.637 68.864 79.462 117.453 149.811 117.453 85.862-.051 155.648-71.424 155.648-159.13zM305.152 235.57c-40.909 0-74.138-33.945-74.138-75.725 0-41.728 33.28-75.673 74.138-75.673 40.858 0 74.086 33.945 74.086 75.673 0 41.78-33.28 75.725-74.086 75.725zm563.507 318.106h114.535c23.654 0 40.806-17.51 40.806-41.677 0-24.166-17.152-41.677-40.806-41.677H868.659c-18.637-68.864-79.462-117.35-149.811-117.35-85.862 0-155.648 71.321-155.648 159.027 0 87.706 69.837 159.027 155.7 159.027 70.348 0 131.174-48.486 149.81-117.35zm-149.811 34.048c-40.858 0-74.086-33.997-74.086-75.725 0-41.728 33.28-75.725 74.086-75.725 40.909 0 74.138 33.997 74.138 75.725 0 41.728-33.28 75.725-74.138 75.725z"/></svg>